#!OML:ASF E:/inclinewalkrobotboard/Project1/Captureday1/Session1/subject1.ASF
:FULLY-SPECIFIED
:DEGREES
113
root 0 0 0 -1.4113486809982163 21.44271796184883 8.58655555754275
lowerback -4.026185863986452 -6.062458657072872 -6.358943116973443
upperback -8.39064818417325 -7.507471845879161 6.981644558165909
thorax -6.088823878332337 -2.6191837379934872 10.968131309559318
lowerneck -5.59887649774491 -8.875756327831203 -7.67076465621297
upperneck 32.218686353082035 -11.46087574932208 1.877058091975481
head 12.13609574046338 -5.834429514756091 0.3687690393413028
rclavicle -3.727950477582797E-15 -2.42583661743301E-15
rhumerus -18.93784004982605 -26.939268137469828 -16.677636009138254
rradius 62.40103165522447
rwrist -12.262211267945887
rhand -26.617510380613435 32.382578844435514
rfingers 7.1250199999999655
rthumb -0.03329486610097021 1.609520475836895
lclavicle 2.5995531968942644E-16 -3.866127494337541E-15
lhumerus 21.997031891148964 3.2442504736360065 42.80189492156242
lradius 63.869564170194934
lwrist -6.754976819205365
lhand -14.248037176305807 7.46966106327487
lfingers 7.125019999999965
lthumb 11.72936347997253 35.630500618675015
rfemur 139.03139508750104 -154.9091323730194 -120.36084370536653
rtibia 28.4520942784567
rfoot -13.958866584659123 -49.6421336004891
rtoes 4.551256191714376
lfemur -82.0844158388499 24.018371972795652 -57.072328958979554
ltibia 68.24680249370286
lfoot 12.527276172944656 31.98727921498039
ltoes 0.09992416407978233
114
root 0 0 0 -1.409601382582622 21.443132862353377 8.585243635061707
lowerback -4.027391638885059 -6.0625067994523505 -6.35829300683232
upperback -8.3911740781267 -7.507517464918886 6.981890673108978
thorax -6.088603110116812 -2.6193037788693996 10.968019593277088
lowerneck -5.59880370826025 -8.875979122090783 -7.670984599320692
upperneck 32.21965286186032 -11.461256875306024 1.87707758738307
head 12.136498506482273 -5.834598458228009 0.36878476830895934
rclavicle -3.7221480753111065E-15 -2.4247674689243738E-15
rhumerus -18.932614230569314 -26.939230228080376 -16.679669828137186
rradius 62.40192184956225
rwrist -12.26462858864857
rhand -26.61756125008726 32.38212715222531
rfingers 7.1250199999999655
rthumb -0.03334287754993426 1.6090487013776347
lclavicle 2.722087966065289E-16 -3.8616067666222615E-15
lhumerus 22.007588107873747 3.2392972358843823 42.767663427360425
lradius 63.873174081154644
lwrist -6.765019106974958
lhand -14.227126671345054 7.471663673361288
lfingers 7.125019999999965
lthumb 11.74929140799195 35.62923800428216
rfemur 139.08993760664032 -154.96728307321786 -120.42034428456387
rtibia 28.4664695591837
rfoot -13.948458273290486 -49.670383585782155
rtoes 4.566522546131623
lfemur -82.08552774498028 24.023211920961103 -57.058202083130006
ltibia 68.26875654615034
lfoot 12.516785130380438 31.975591301846883
ltoes 0.10569159863518429
115
root 0 0 0 -1.406356737438081 21.439576491456524 8.583242696634974
lowerback -4.029272794728872 -6.06244377377616 -6.3575515667005735
upperback -8.391947250540962 -7.507450340883393 6.982004835316879
thorax -6.088270170356027 -2.619400293490836 10.967739385647114
lowerneck -5.598783766966611 -8.875953207743667 -7.671010668771055
upperneck 32.22093715329793 -11.461518154719819 1.8776494131461967
head 12.137049097905315 -5.834634950834148 0.3689809495281031
rclavicle -3.7244620546424096E-15 -2.4283285271041958E-15
rhumerus -18.92496546585315 -26.938297723042247 -16.679416220159347
rradius 62.403584144892136
rwrist -12.266396051317699
rhand -26.618090859336117 32.38156420692794
rfingers 7.1250199999999655
rthumb -0.0338361491094652 1.608351651880053
lclavicle 2.5814725526045043E-16 -3.865520794778838E-15
lhumerus 22.06335307513179 3.247086151116236 42.69749547129865
lradius 63.8706483041456
lwrist -6.79289720910155
lhand -14.193836182798277 7.473514993493229
lfingers 7.125019999999965
lthumb 11.78112943292025 35.62671497274179
rfemur 139.16759382714673 -155.04028062909526 -120.49476219659991
rtibia 28.47142442955609
rfoot -13.931488331958928 -49.70421116094674
rtoes 4.581634752547025
lfemur -82.08573340753809 24.026250938194316 -57.04278030774684
ltibia 68.28420575504192
lfoot 12.496575019380547 31.966678543561027
ltoes 0.10882686261418328
116
root 0 0 0 -1.404409699165722 21.43670923953263 8.582488414350058
lowerback -4.030551957992378 -6.062407492661885 -6.3573880320281155
upperback -8.392500199007916 -7.507415361409619 6.982013009459084
thorax -6.088116603824717 -2.6194225113525116 10.967668160080882
lowerneck -5.598664426017595 -8.875835683252337 -7.670929859352229
upperneck 32.221614449181246 -11.461555061629669 1.8780727147667862
head 12.137311416134454 -5.834590524030368 0.36912252694575987
rclavicle -3.7279053230949304E-15 -2.430765728908719E-15
rhumerus -18.923365781496088 -26.938188451741794 -16.67719717883844
rradius 62.403335317385995
rwrist -12.265383462135688
rhand -26.61851625208702 32.381226571300175
rfingers 7.1250199999999655
rthumb -0.03423400412849986 1.607869989536237
lclavicle 2.4274984308227715E-16 -3.866948967609564E-15
lhumerus 22.121433548039874 3.2633172235472485 42.6295541269537
lradius 63.864345092069684
lwrist -6.825247795667318
lhand -14.167937776453071 7.473616001889891
lfingers 7.125019999999965
lthumb 11.805953964426017 35.624063210888465
rfemur 139.21193146987633 -155.07920220701078 -120.53716287330172
rtibia 28.474440678844267
rfoot -13.915051894636445 -49.73184462525303
rtoes 4.593343378048061
lfemur -82.08633057619085 24.027577451016285 -57.0345673554599
ltibia 68.29370786894697
lfoot 12.484597775674349 31.961913557879864
ltoes 0.11006534222005193
